<?xml version="1.0" encoding="utf-8"?>
<!-- Generator: Adobe Illustrator 17.0.0, SVG Export Plug-In . SVG Version: 6.00 Build 0)  -->
<!DOCTYPE svg PUBLIC "-//W3C//DTD SVG 1.1//EN" "http://www.w3.org/Graphics/SVG/1.1/DTD/svg11.dtd">
<svg version="1.1" id="Layer_1" xmlns="http://www.w3.org/2000/svg" xmlns:xlink="http://www.w3.org/1999/xlink" x="0px" y="0px"
	 width="512px" height="512px" viewBox="0 0 512 512" enable-background="new 0 0 512 512" xml:space="preserve">
<path fill="#eee" d="M332.992,89.984L332.992,89.984 M471.448,96.461c-16.316,0-29.542,13.226-29.542,29.542s13.226,29.542,29.542,29.542
	s29.542-13.226,29.542-29.542S487.763,96.461,471.448,96.461z M405.578,301.324c-12.309,0-22.287,9.978-22.287,22.287
	c0,12.309,9.978,22.287,22.287,22.287s22.287-9.978,22.287-22.287C427.866,311.302,417.887,301.324,405.578,301.324z
	 M449.74,145.922 M315.7,255.52 M107.192,463.306c13.676,13.676,35.849,13.676,49.525,0s13.676-35.849,0-49.525
	s-35.849-13.676-49.525,0S93.516,449.63,107.192,463.306z M112.818,382.123L112.818,382.123 M19.495,279.64
	c11.537,11.537,30.242,11.537,41.779,0s11.537-30.242,0-41.779c-11.537-11.537-30.242-11.537-41.779,0
	C7.958,249.399,7.958,268.104,19.495,279.64z M192.325,181.333c13.835,13.835,36.266,13.835,50.101,0
	c13.835-13.835,13.835-36.266,0-50.101c-13.835-13.835-36.266-13.835-50.101,0C178.491,145.067,178.491,167.498,192.325,181.333z
	 M257.533,302.432c13.835,13.835,36.266,13.835,50.1,0c13.835-13.835,13.835-36.266,0-50.1s-36.266-13.835-50.1,0
	C243.698,266.166,243.698,288.597,257.533,302.432z M348.856,374.588c-5.808-5.808-15.226-5.808-21.034,0s-5.808,15.226,0,21.034
	s15.226,5.808,21.034,0C354.664,389.814,354.664,380.397,348.856,374.588z M287.013,37.846c-12.309,0-22.287,9.978-22.287,22.287
	s9.978,22.287,22.287,22.287c12.309,0,22.287-9.978,22.287-22.287S299.322,37.846,287.013,37.846z"/>
</svg>
